{"asset":{"version":"2.0","generator":"THREE.GLTFExporter"},"scenes":[{"name":"AuxScene","nodes":[4]}],"scene":0,"nodes":[{"matrix":[-5.516459517753315e-7,-3.7060792302286907,0.5974333866697004,0,1.4683344077527756,-2.1206915835592476e-7,3.301363623398386e-8,0,-2.711876332567348e-8,0.4781911071765871,2.966379280493454,0,0.33623576164245605,-0.08140850067138672,0.02365461178123951,1],"name":"Torus001","extras":{"name":"Torus.001"},"mesh":1},{"matrix":[1.6673228029096156e-7,-2.363448070040729,-2.916517259944291,0,1.468334358521163,-1.4784441540977967e-7,2.2344709986305216e-7,0,-4.572432089462134e-7,-2.334405821008326,1.8917243390129954,0,-0.03532330319285393,-0.10700559616088867,0.004171809181571007,1],"name":"Torus003","extras":{"name":"Torus.003"},"mesh":2},{"matrix":[-2.81242332352263e-7,-1.4321544947354083,3.469997989608431,0,1.4683343583851958,2.765120622310233e-8,1.0286836779089544e-7,0,-2.1050109347732634e-7,2.7774171036810085,1.1463090492592862,0,-0.5154538154602051,-0.10379600524902344,0.16460728645324707,1],"name":"Torus002","extras":{"name":"Torus.002"},"mesh":3},{"matrix":[-3.575154087097064e-8,0,-0.26608998178311133,0,0,0.26608994603157043,0,0,0.26608998178311133,0,-3.575154087097064e-8,0,0,1.3113170862197876,0,1],"name":"Cube","extras":{"name":"Cube"},"mesh":0,"children":[0,1,2]},{"name":"Scene","children":[3]}],"bufferViews":[{"buffer":0,"byteOffset":0,"byteLength":5292,"target":34962,"byteStride":12},{"buffer":0,"byteOffset":5292,"byteLength":5292,"target":34962,"byteStride":12},{"buffer":0,"byteOffset":10584,"byteLength":3528,"target":34962,"byteStride":8},{"buffer":0,"byteOffset":14112,"byteLength":9216,"target":34963},{"buffer":0,"byteOffset":23328,"byteLength":29100,"target":34962,"byteStride":12},{"buffer":0,"byteOffset":52428,"byteLength":29100,"target":34962,"byteStride":12},{"buffer":0,"byteOffset":81528,"byteLength":19400,"target":34962,"byteStride":8},{"buffer":0,"byteOffset":100928,"byteLength":55296,"target":34963},{"buffer":0,"byteOffset":156224,"byteLength":29100,"target":34962,"byteStride":12},{"buffer":0,"byteOffset":185324,"byteLength":29100,"target":34962,"byteStride":12},{"buffer":0,"byteOffset":214424,"byteLength":19400,"target":34962,"byteStride":8},{"buffer":0,"byteOffset":233824,"byteLength":55296,"target":34963},{"buffer":0,"byteOffset":289120,"byteLength":29100,"target":34962,"byteStride":12},{"buffer":0,"byteOffset":318220,"byteLength":29100,"target":34962,"byteStride":12},{"buffer":0,"byteOffset":347320,"byteLength":19400,"target":34962,"byteStride":8},{"buffer":0,"byteOffset":366720,"byteLength":55296,"target":34963}],"buffers":[{"byteLength":422016,"uri":"data:application/octet-stream;base64,"}],"accessors":[{"bufferView":0,"componentType":5126,"count":441,"max":[0.8395062685012817,0.8395062685012817,0.8395062685012817],"min":[-0.8395062685012817,-0.8395062685012817,-0.8395062685012817],"type":"VEC3"},{"bufferView":1,"componentType":5126,"count":441,"max":[1,1,1],"min":[-1,-1,-1],"type":"VEC3"},{"bufferView":2,"componentType":5126,"count":441,"max":[0.8747556805610657,1],"min":[0.1250000149011612,-1.1920928955078125e-7],"type":"VEC2"},{"bufferView":3,"componentType":5125,"count":2304,"max":[440],"min":[0],"type":"SCALAR"},{"bufferView":4,"componentType":5126,"count":2425,"max":[1.2705326080322266,0.27425289154052734,0.8959351181983948],"min":[-1.271742582321167,-0.27468979358673096,-0.8924753069877625],"type":"VEC3"},{"bufferView":5,"componentType":5126,"count":2425,"max":[1,1,1],"min":[-0.9993176460266113,-1,-0.9999685287475586],"type":"VEC3"},{"bufferView":6,"componentType":5126,"count":2425,"max":[1.0000001192092896,1],"min":[8.881785255792436e-16,-1.1920928955078125e-7],"type":"VEC2"},{"bufferView":7,"componentType":5125,"count":13824,"max":[2424],"min":[0],"type":"SCALAR"},{"bufferView":8,"componentType":5126,"count":2425,"max":[1.2705326080322266,0.27425289154052734,0.8959351181983948],"min":[-1.271742582321167,-0.27468979358673096,-0.8924753069877625],"type":"VEC3"},{"bufferView":9,"componentType":5126,"count":2425,"max":[1,1,1],"min":[-0.9993176460266113,-1,-0.9999685287475586],"type":"VEC3"},{"bufferView":10,"componentType":5126,"count":2425,"max":[1.0000001192092896,1],"min":[8.881785255792436e-16,-1.1920928955078125e-7],"type":"VEC2"},{"bufferView":11,"componentType":5125,"count":13824,"max":[2424],"min":[0],"type":"SCALAR"},{"bufferView":12,"componentType":5126,"count":2425,"max":[1.2705326080322266,0.27425289154052734,0.8959351181983948],"min":[-1.271742582321167,-0.27468979358673096,-0.8924753069877625],"type":"VEC3"},{"bufferView":13,"componentType":5126,"count":2425,"max":[1,1,1],"min":[-0.9993176460266113,-1,-0.9999685287475586],"type":"VEC3"},{"bufferView":14,"componentType":5126,"count":2425,"max":[1.0000001192092896,1],"min":[8.881785255792436e-16,-1.1920928955078125e-7],"type":"VEC2"},{"bufferView":15,"componentType":5125,"count":13824,"max":[2424],"min":[0],"type":"SCALAR"}],"materials":[{"pbrMetallicRoughness":{"baseColorFactor":[0.058823529411764705,0.6901960784313725,1,1],"metallicFactor":1,"roughnessFactor":0},"alphaMode":"BLEND","name":"default"},{"pbrMetallicRoughness":{"baseColorFactor":[0.058823529411764705,0.6901960784313725,1,1],"metallicFactor":1,"roughnessFactor":0},"alphaMode":"BLEND","name":"default"},{"pbrMetallicRoughness":{"baseColorFactor":[0.058823529411764705,0.6901960784313725,1,1],"metallicFactor":1,"roughnessFactor":0},"alphaMode":"BLEND","name":"default"},{"pbrMetallicRoughness":{"baseColorFactor":[0.058823529411764705,0.6901960784313725,1,1],"metallicFactor":1,"roughnessFactor":0},"alphaMode":"BLEND","name":"default"}],"meshes":[{"primitives":[{"mode":4,"attributes":{"POSITION":0,"NORMAL":1,"TEXCOORD_0":2},"indices":3,"material":0}]},{"primitives":[{"mode":4,"attributes":{"POSITION":4,"NORMAL":5,"TEXCOORD_0":6},"indices":7,"material":1}]},{"primitives":[{"mode":4,"attributes":{"POSITION":8,"NORMAL":9,"TEXCOORD_0":10},"indices":11,"material":2}]},{"primitives":[{"mode":4,"attributes":{"POSITION":12,"NORMAL":13,"TEXCOORD_0":14},"indices":15,"material":3}]}]}